<?xml version="1.0" encoding="UTF-8"?>
<svg width="29px" height="26px" viewBox="0 0 29 26" version="1.1" xmlns="http://www.w3.org/2000/svg" xmlns:xlink="http://www.w3.org/1999/xlink">
    <!-- Generator: Sketch 51.1 (57501) - http://www.bohemiancoding.com/sketch -->
    <title>coins</title>
    <desc>Created with Sketch.</desc>
    <defs></defs>
    <g id="Game" stroke="none" stroke-width="1" fill="none" fill-rule="evenodd">
        <g id="Main" transform="translate(-1152.000000, -23.000000)" fill-rule="nonzero">
            <g id="Group" transform="translate(1152.000000, 17.000000)">
                <g id="coins" transform="translate(0.000000, 6.000000)">
                    <path d="M14.5,22.5 C7.3205,22.5 1.5,21.019 1.5,19.5 L1.5,22.998 C1.504,24.516 7.3225,26 14.5,26 C21.6775,26 27.496,24.516 27.5,22.998 L27.5,19.5 C27.5,21.019 21.6795,22.5 14.5,22.5" id="XMLID_148_" fill="#E4AF18"></path>
                    <path d="M13,17 C5.8205,17 0,15.519 0,14 L0,17.498 C0.004,19.016 5.8225,20.5 13,20.5 C20.1775,20.5 25.996,19.016 26,17.498 L26,14 C26,15.519 20.1795,17 13,17" id="XMLID_147_" fill="#F4BF1A"></path>
                    <path d="M16,11.5 C8.8205,11.5 3,10.019 3,8.5 L3,11.998 C3.004,13.516 8.8225,15 16,15 C23.1775,15 28.996,13.516 29,11.998 L29,8.5 C29,10.019 23.1795,11.5 16,11.5" id="XMLID_146_" fill="#E4AF18"></path>
                    <path d="M26,2.565 C26,4.0835 20.1795,5.5 13,5.5 C5.8205,5.5 0,4.0835 0,2.565 C0,1.046 5.8205,0 13,0 C20.1795,0 26,1.046 26,2.565" id="XMLID_145_" fill="#FFD949"></path>
                    <path d="M13,5.5 C5.8205,5.5 0,4.019 0,2.5 L0,5.998 C0.004,7.516 5.8225,9 13,9 C20.1775,9 25.996,7.516 26,5.998 L26,2.5 C26,4.019 20.1795,5.5 13,5.5" id="XMLID_144_" fill="#F4BF1A"></path>
                    <path d="M2,4.037 L2,7.5345 C2.304,7.6465 2.637,7.7545 3,7.8575 L3,4.3595 C2.637,4.2565 2.304,4.1485 2,4.037" id="XMLID_143_" fill="#DCA815"></path>
                    <path d="M23,4.3595 L23,7.8575 C23.363,7.7545 23.696,7.6465 24,7.5345 L24,4.037 C23.696,4.149 23.363,4.2565 23,4.3595" id="XMLID_142_" fill="#DCA815"></path>
                    <path d="M4.5,4.7225 L4.5,8.221 C4.82,8.2875 5.1535,8.3505 5.5,8.41 L5.5,4.9115 C5.1535,4.852 4.82,4.789 4.5,4.7225" id="XMLID_141_" fill="#DCA815"></path>
                    <path d="M20.5,4.9115 L20.5,8.4105 C20.8465,8.3505 21.18,8.2875 21.5,8.221 L21.5,4.7225 C21.18,4.789 20.8465,4.852 20.5,4.9115" id="XMLID_140_" fill="#DCA815"></path>
                    <path d="M7,5.1345 L7,8.6335 C7.326,8.6755 7.6585,8.7145 8,8.7495 L8,5.2505 C7.6585,5.2155 7.326,5.176 7,5.1345" id="XMLID_139_" fill="#DCA815"></path>
                    <path d="M18,5.251 L18,8.75 C18.3415,8.7145 18.674,8.6755 19,8.634 L19,5.1345 C18.674,5.177 18.3415,5.216 18,5.251" id="XMLID_138_" fill="#DCA815"></path>
                    <path d="M9.5,5.3795 L9.5,8.879 C9.8285,8.902 10.1615,8.9225 10.5,8.939 L10.5,5.439 C10.1615,5.4225 9.8285,5.4025 9.5,5.3795" id="XMLID_137_" fill="#DCA815"></path>
                    <path d="M15.5,5.439 L15.5,8.939 C15.8385,8.9225 16.1715,8.902 16.5,8.879 L16.5,5.3795 C16.1715,5.4025 15.8385,5.4225 15.5,5.439" id="XMLID_136_" fill="#DCA815"></path>
                    <path d="M13,5.5 C12.8325,5.5 12.666,5.4985 12.5,5.497 L12.5,8.997 C12.666,8.9985 12.8325,9 13,9 C13.1675,9 13.334,8.9985 13.5,8.997 L13.5,5.497 C13.334,5.4985 13.1675,5.5 13,5.5" id="XMLID_135_" fill="#DCA815"></path>
                    <path d="M5,10.037 L5,13.5345 C5.304,13.6465 5.637,13.7545 6,13.8575 L6,10.3595 C5.637,10.2565 5.304,10.1485 5,10.037" id="XMLID_134_" fill="#C49214"></path>
                    <path d="M26,10.3595 L26,13.8575 C26.363,13.7545 26.696,13.6465 27,13.5345 L27,10.037 C26.696,10.149 26.363,10.2565 26,10.3595" id="XMLID_133_" fill="#C49214"></path>
                    <path d="M7.5,10.7225 L7.5,14.221 C7.82,14.2875 8.1535,14.3505 8.5,14.41 L8.5,10.9115 C8.1535,10.852 7.82,10.789 7.5,10.7225" id="XMLID_132_" fill="#C49214"></path>
                    <path d="M23.5,10.9115 L23.5,14.4105 C23.8465,14.3505 24.18,14.2875 24.5,14.221 L24.5,10.7225 C24.18,10.789 23.8465,10.852 23.5,10.9115" id="XMLID_131_" fill="#C49214"></path>
                    <path d="M10,11.135 L10,14.634 C10.326,14.676 10.6585,14.715 11,14.75 L11,11.251 C10.6585,11.2155 10.326,11.1765 10,11.135" id="XMLID_130_" fill="#C49214"></path>
                    <path d="M21,11.2505 L21,14.75 C21.3415,14.7145 21.674,14.6755 22,14.634 L22,11.135 C21.674,11.177 21.3415,11.216 21,11.2505" id="XMLID_129_" fill="#C49214"></path>
                    <path d="M12.5,11.3795 L12.5,14.879 C12.8285,14.902 13.1615,14.9225 13.5,14.939 L13.5,11.439 C13.1615,11.4225 12.8285,11.4025 12.5,11.3795" id="XMLID_128_" fill="#C49214"></path>
                    <path d="M18.5,11.439 L18.5,14.939 C18.8385,14.9225 19.1715,14.902 19.5,14.879 L19.5,11.3795 C19.1715,11.4025 18.8385,11.4225 18.5,11.439" id="XMLID_127_" fill="#C49214"></path>
                    <path d="M16,11.5 C15.8325,11.5 15.666,11.4985 15.5,11.497 L15.5,14.997 C15.666,14.9985 15.8325,15 16,15 C16.1675,15 16.334,14.9985 16.5,14.997 L16.5,11.497 C16.334,11.4985 16.1675,11.5 16,11.5" id="XMLID_126_" fill="#C49214"></path>
                    <path d="M2,15.537 L2,19.0345 C2.304,19.1465 2.637,19.254 3,19.3575 L3,15.8595 C2.637,15.7565 2.304,15.6485 2,15.537" id="XMLID_125_" fill="#DCA815"></path>
                    <path d="M23,15.8595 L23,19.3575 C23.363,19.2545 23.696,19.1465 24,19.0345 L24,15.537 C23.696,15.649 23.363,15.7565 23,15.8595" id="XMLID_124_" fill="#DCA815"></path>
                    <path d="M4.5,16.2225 L4.5,19.721 C4.82,19.7875 5.1535,19.8505 5.5,19.91 L5.5,16.4115 C5.1535,16.352 4.82,16.289 4.5,16.2225" id="XMLID_123_" fill="#DCA815"></path>
                    <path d="M20.5,16.4115 L20.5,19.9105 C20.8465,19.8505 21.18,19.7875 21.5,19.721 L21.5,16.2225 C21.18,16.289 20.8465,16.352 20.5,16.4115" id="XMLID_122_" fill="#DCA815"></path>
                    <path d="M7,16.635 L7,20.134 C7.326,20.176 7.6585,20.215 8,20.25 L8,16.751 C7.6585,16.7155 7.326,16.6765 7,16.635" id="XMLID_121_" fill="#DCA815"></path>
                    <path d="M18,16.7505 L18,20.25 C18.3415,20.2145 18.674,20.1755 19,20.134 L19,16.635 C18.674,16.677 18.3415,16.716 18,16.7505" id="XMLID_120_" fill="#DCA815"></path>
                    <path d="M9.5,16.8795 L9.5,20.379 C9.8285,20.402 10.1615,20.4225 10.5,20.439 L10.5,16.939 C10.1615,16.9225 9.8285,16.9025 9.5,16.8795" id="XMLID_119_" fill="#DCA815"></path>
                    <path d="M15.5,16.939 L15.5,20.439 C15.8385,20.4225 16.1715,20.402 16.5,20.379 L16.5,16.8795 C16.1715,16.9025 15.8385,16.9225 15.5,16.939" id="XMLID_118_" fill="#DCA815"></path>
                    <path d="M13,17 C12.8325,17 12.666,16.9985 12.5,16.997 L12.5,20.497 C12.666,20.4985 12.8325,20.5 13,20.5 C13.1675,20.5 13.334,20.4985 13.5,20.497 L13.5,16.997 C13.334,16.9985 13.1675,17 13,17" id="XMLID_117_" fill="#DCA815"></path>
                    <path d="M3.5,21.037 L3.5,24.5345 C3.804,24.6465 4.137,24.754 4.5,24.8575 L4.5,21.3595 C4.137,21.2565 3.804,21.1485 3.5,21.037" id="XMLID_116_" fill="#C49214"></path>
                    <path d="M24.5,21.3595 L24.5,24.8575 C24.863,24.7545 25.196,24.6465 25.5,24.5345 L25.5,21.037 C25.196,21.149 24.863,21.2565 24.5,21.3595" id="XMLID_115_" fill="#C49214"></path>
                    <path d="M6,21.7225 L6,25.221 C6.32,25.2875 6.6535,25.3505 7,25.41 L7,21.9115 C6.6535,21.852 6.32,21.789 6,21.7225" id="XMLID_114_" fill="#C49214"></path>
                    <path d="M22,21.9115 L22,25.4105 C22.3465,25.3505 22.68,25.2875 23,25.221 L23,21.7225 C22.68,21.789 22.3465,21.852 22,21.9115" id="XMLID_113_" fill="#C49214"></path>
                    <path d="M8.5,22.135 L8.5,25.634 C8.826,25.676 9.1585,25.715 9.5,25.75 L9.5,22.251 C9.1585,22.2155 8.826,22.1765 8.5,22.135" id="XMLID_112_" fill="#C49214"></path>
                    <path d="M19.5,22.2505 L19.5,25.75 C19.8415,25.7145 20.174,25.6755 20.5,25.634 L20.5,22.135 C20.174,22.177 19.8415,22.216 19.5,22.2505" id="XMLID_111_" fill="#C49214"></path>
                    <path d="M11,22.3795 L11,25.879 C11.3285,25.902 11.6615,25.9225 12,25.939 L12,22.439 C11.6615,22.4225 11.3285,22.4025 11,22.3795" id="XMLID_110_" fill="#C49214"></path>
                    <path d="M17,22.439 L17,25.939 C17.3385,25.9225 17.6715,25.902 18,25.879 L18,22.3795 C17.6715,22.4025 17.3385,22.4225 17,22.439" id="XMLID_109_" fill="#C49214"></path>
                    <path d="M14.5,22.5 C14.3325,22.5 14.166,22.4985 14,22.497 L14,25.997 C14.166,25.9985 14.3325,26 14.5,26 C14.6675,26 14.834,25.9985 15,25.997 L15,22.497 C14.834,22.4985 14.6675,22.5 14.5,22.5" id="XMLID_108_" fill="#C49214"></path>
                    <path d="M25.606,18.186 C24.186,19.435 19.0815,20.5 13,20.5 C8.245,20.5 4.0885,19.8485 1.822,18.9675 C1.6135,19.1565 1.5,19.3565 1.5,19.565 C1.5,21.084 7.3205,22.5 14.5,22.5 C21.68,22.5 27.5,21.084 27.5,19.565 C27.5,19.0415 26.8075,18.5735 25.606,18.186" id="XMLID_107_" fill="#FCC62D"></path>
                    <path d="M16,15 C9.3935,15 3.942,13.7425 3.113,12.3585 C1.1735,12.798 0,13.3835 0,14.065 C0,15.5835 5.8205,17 13,17 C20.1795,17 26,15.5835 26,14.065 C26,13.998 25.985,13.9325 25.9625,13.8675 C23.578,14.5385 20.001,15 16,15" id="XMLID_106_" fill="#FFD949"></path>
                    <path d="M25.4965,6.7745 C23.941,7.9845 18.937,9 13,9 C9.166,9 5.7205,8.576 3.341,7.95 C3.1205,8.145 3,8.35 3,8.565 C3,10.084 8.8205,11.5 16,11.5 C23.1795,11.5 29,10.084 29,8.565 C29,7.839 27.6685,7.2215 25.4965,6.7745" id="XMLID_105_" fill="#FCC62D"></path>
                </g>
            </g>
        </g>
    </g>
</svg>