<?xml version="1.0" encoding="UTF-8"?>
<!DOCTYPE svg PUBLIC "-//W3C//DTD SVG 1.1//EN" "http://www.w3.org/Graphics/SVG/1.1/DTD/svg11.dtd">
<!-- Creator: CorelDRAW X7 -->
<svg xmlns="http://www.w3.org/2000/svg" xml:space="preserve" width="2.69906in" height="1.77672in" version="1.1" style="shape-rendering:geometricPrecision; text-rendering:geometricPrecision; image-rendering:optimizeQuality; fill-rule:evenodd; clip-rule:evenodd"
viewBox="0 0 2372 1561"
 xmlns:xlink="http://www.w3.org/1999/xlink">
 <defs>
  <style type="text/css">
   <![CDATA[
    .fil1 {fill:#85C555}
    .fil0 {fill:#5AA44F}
    .fil3 {fill:#85C555;fill-rule:nonzero}
    .fil2 {fill:#5AA44F;fill-rule:nonzero}
   ]]>
  </style>
 </defs>
 <g id="Layer_x0020_1">
  <metadata id="CorelCorpID_0Corel-Layer"/>
  <g id="_1105599968">
   <polygon class="fil0" points="457,469 286,0 1175,0 943,469 "/>
   <polygon class="fil1" points="241,1138 459,683 218,13 0,469 "/>
   <polygon class="fil0" points="304,1164 523,703 1019,703 1190,1164 "/>
   <path class="fil2" d="M678 1266l-65 0c-6,0 -8,3 -8,8 0,5 3,7 9,7l64 0 0 48 -69 0c-4,0 -6,3 -6,9 0,2 0,3 0,4l0 42 -44 0 0 -127c0,-10 3,-18 9,-25 7,-7 15,-10 25,-10l85 0 0 44zm310 81c0,10 -3,19 -11,27 -7,7 -16,10 -26,10l-56 0c-10,0 -19,-3 -26,-10 -7,-8 -11,-17 -11,-27l0 -127 47 0 0 110c0,3 1,6 3,8 2,3 5,4 9,4l16 0c4,0 6,-1 9,-4 2,-2 3,-5 3,-8l0 -110 43 0 0 127zm314 37l-45 0 0 -108c0,-6 -1,-9 -5,-11 -2,0 -7,-1 -13,-1 -6,0 -11,1 -14,2 -4,1 -7,5 -7,10l0 108 -46 0 0 -162 89 0c13,0 24,4 31,13 7,8 10,19 10,32l0 117z"/>
   <path class="fil3" d="M667 1561l-69 0c-8,0 -15,-2 -20,-6 -6,-4 -9,-11 -9,-19l0 -87c0,-8 3,-14 9,-19 5,-4 12,-7 20,-7l69 0 0 37 -52 0c-6,0 -10,4 -10,12l0 38c0,7 3,11 9,11l53 0 0 40zm125 0l-40 0 -31 -58 -4 0 0 58 -36 0 0 -138 67 0c28,0 43,13 43,38 0,2 0,4 0,6 0,11 -2,19 -5,26 -4,9 -11,14 -19,15l25 53zm-41 -94c0,-2 -1,-3 -2,-4 -1,-1 -3,-2 -4,-2l-28 0 0 12 28 0c1,0 3,0 4,-2 1,-1 2,-2 2,-4zm162 -44l-38 75 0 63 -35 0 0 -63 -37 -75 41 0 14 29 14 -29 41 0zm115 48c0,25 -14,37 -43,37l-31 0 0 53 -36 0 0 -138 67 0c28,0 43,13 43,38 0,1 0,3 0,5 0,2 0,4 0,5zm-40 -4c0,-2 -1,-3 -2,-4 -1,-1 -2,-2 -4,-2l-21 0c-2,0 -3,1 -4,2 -1,1 -2,3 -2,4 0,2 1,3 2,4 1,2 2,2 4,2l21 0c2,0 3,0 4,-2 1,-1 2,-2 2,-4zm190 -3l-53 0 0 97 -37 0 0 -97 -53 0 0 -41 60 0c5,0 9,1 13,2 2,-1 5,-2 10,-2l60 0 0 41zm122 65c0,9 -3,17 -9,23 -6,6 -14,9 -22,9l-47 0c-8,0 -16,-3 -22,-9 -6,-6 -9,-14 -9,-23l0 -73c0,-9 3,-17 9,-23 6,-6 14,-10 22,-10l47 0c8,0 16,4 22,10 6,6 9,14 9,23l0 73zm-36 -13l0 -47c0,-2 -1,-5 -3,-7 -2,-2 -4,-3 -7,-3l-14 0c-3,0 -5,1 -7,3 -2,2 -3,5 -3,7l0 47c0,2 1,5 3,7 2,2 4,3 7,3l14 0c3,0 5,-1 7,-3 2,-2 3,-5 3,-7z"/>
   <polygon class="fil1" points="1337,1228 1491,1554 1952,1554 1798,1228 "/>
   <polygon class="fil0" points="1496,469 1325,0 2213,0 1981,469 "/>
   <polygon class="fil1" points="1273,1138 1491,683 1250,13 1032,469 "/>
   <polygon class="fil0" points="1342,1164 1561,703 2057,703 2228,1164 "/>
   <path class="fil1" d="M2123 703l78 0 171 461 -78 0 -171 -461zm156 -703l78 0 -232 469 -78 0 232 -469z"/>
  </g>
 </g>
</svg>
