<?xml version="1.0" encoding="UTF-8"?>
<svg width="113px" height="163px" viewBox="0 0 113 163" version="1.1" xmlns="http://www.w3.org/2000/svg" xmlns:xlink="http://www.w3.org/1999/xlink">
    <!-- Generator: Sketch 51 (57462) - http://www.bohemiancoding.com/sketch -->
    <title>logo</title>
    <desc>Created with Sketch.</desc>
    <defs>
        <linearGradient x1="100%" y1="50%" x2="-2.22044605e-14%" y2="50%" id="linearGradient-1">
            <stop stop-color="#A6CF36" offset="0%"></stop>
            <stop stop-color="#05FFC9" offset="100%"></stop>
        </linearGradient>
        <linearGradient x1="-1.11022302e-14%" y1="50%" x2="100%" y2="50%" id="linearGradient-2">
            <stop stop-color="#A6CF36" offset="0%"></stop>
            <stop stop-color="#05FFC9" offset="100%"></stop>
        </linearGradient>
    </defs>
    <g id="Game" stroke="none" stroke-width="1" fill="none" fill-rule="evenodd">
        <g id="Login" transform="translate(-664.000000, -294.000000)">
            <rect fill="#F2F4F7" x="0" y="0" width="1440" height="1024"></rect>
            <g transform="translate(491.000000, 294.000000)" fill-rule="nonzero" id="logo">
                <g transform="translate(173.000000, 0.000000)">
                    <g id="Group" transform="translate(7.533333, 34.860180)">
                        <polygon id="Shape" fill="url(#linearGradient-1)" points="96.9263778 50.1862507 96.9263778 96.5883287 48.7130444 124.700536 48.7130444 78.2645884 57.1503778 73.3872897"></polygon>
                        <polygon id="Shape" fill="url(#linearGradient-2)" points="48.7130444 28.1107423 48.7130444 74.5466903 0.499711111 47.2134955 0.499711111 0.0324045954 40.3158889 23.2334436"></polygon>
                    </g>
                    <path d="M112.274289,33.3785896 C112.234111,33.2363351 112.173844,33.1076286 112.121613,32.968761 C111.997062,32.6198987 111.852422,32.2845844 111.667604,31.9594312 C111.579213,31.8070156 111.482787,31.664761 111.38636,31.5191195 C111.181453,31.2210623 110.95244,30.9433273 110.69932,30.6757532 C110.578787,30.5470468 110.462271,30.4183403 110.329684,30.2997948 C109.984156,29.9848026 109.606484,29.7036805 109.196671,29.4496545 C109.136404,29.4123974 109.092209,29.3615922 109.031942,29.3243351 L60.8392,1.20535325 C58.0870222,-0.400090909 54.4469156,-0.403477922 51.6947378,1.20535325 L3.46884889,29.3243351 C3.40456444,29.3615922 3.36036889,29.4157844 3.29608444,29.4530416 C2.89028889,29.7036805 2.51663556,29.9848026 2.17110667,30.2964078 C2.03450222,30.4183403 1.91798667,30.5504338 1.79745333,30.6791403 C1.54433333,30.9433273 1.31933778,31.2210623 1.11443111,31.5157325 C1.01398667,31.664761 0.913542222,31.8070156 0.825151111,31.9628182 C0.640333333,32.2811974 0.495693333,32.6165117 0.37516,32.961987 C0.326946667,33.1008545 0.262662222,33.2363351 0.222484444,33.3785896 C0.0898977778,33.8697065 0.00150666667,34.3743714 0.00150666667,34.8959714 L0.00150666667,81.2946623 L0.00150666667,82.0601273 L0.00150666667,82.0669013 L0.00150666667,82.0702883 L0.00150666667,128.485914 C0.00150666667,130.741665 1.33540889,132.848387 3.55322222,134.108356 L51.7464667,161.417842 C52.33708,161.756543 53.0000133,162.000408 53.6910711,162.196855 C53.8517822,162.240886 54.0044578,162.284917 54.1691867,162.322174 C54.8361378,162.47459 55.5271956,162.579587 56.2503956,162.579587 C56.9896667,162.579587 57.6927778,162.467816 58.3758,162.308626 C58.5365111,162.271369 58.6891867,162.230725 58.84588,162.186694 C59.5369378,161.98686 60.1998711,161.732834 60.7904844,161.390745 C60.8025378,161.383971 60.8145911,161.383971 60.8226267,161.377197 L109.03596,133.261603 C111.20556,131.99486 112.499284,129.915234 112.499284,127.689966 L112.499284,81.2946623 C112.499284,81.2777273 112.495267,81.2607922 112.495267,81.2438571 L112.495267,34.8959714 C112.495267,34.3743714 112.406876,33.8697065 112.274289,33.3785896 Z M16.0686,47.817426 L43.2689556,63.6686468 C43.2729733,63.6720338 43.2769911,63.6754208 43.2810089,63.6754208 L48.2268933,66.5442208 L48.2268933,96.6954104 L44.2613467,94.4464338 L16.0686,78.4563455 L16.0686,47.817426 Z M48.21484,143.094101 L16.0726178,124.882132 L16.0726178,94.7885221 L48.21484,113.017426 L48.21484,143.094101 Z M60.1315689,52.525374 L56.2664667,54.7641896 L52.3973467,52.515213 C52.3933289,52.511826 52.3893111,52.511826 52.3852933,52.508439 L22.1675867,34.8925844 L56.2624489,15.0142052 L90.3372222,34.8959714 L60.1315689,52.525374 Z M96.4241556,47.827587 L96.4241556,77.7450727 L64.3020222,96.4888026 L64.3020222,66.5509948 L69.2559422,63.6821948 C69.25996,63.6821948 69.25996,63.6788078 69.2639778,63.6754208 C69.2679956,63.6720338 69.2720133,63.6720338 69.2800489,63.6686468 L96.4241556,47.827587 Z M96.4281733,124.143764 L64.2859511,142.887494 L64.2859511,112.973395 L96.4281733,94.2195039 L96.4281733,124.143764 Z" id="Shape" fill="#7D818C"></path>
                </g>
            </g>
        </g>
    </g>
</svg>