<svg xmlns="http://www.w3.org/2000/svg" xmlns:xlink="http://www.w3.org/1999/xlink" width="42" height="42"><defs><path id="b" d="M929 185c-6.6274 0-12-5.3726-12-12s5.3726-12 12-12 12 5.3726 12 12-5.3726 12-12 12zm3.7496-15.022l-5.053 5.0528-2.1217-2.1214c-.4394-.4393-1.1517-.4393-1.591.0001s-.4393 1.1517.0001 1.591l2.9171 2.9168c.4394.4392 1.1516.4392 1.591 0l5.8484-5.8482c.4394-.4393.4394-1.1516.0001-1.591-.4393-.4393-1.1516-.4394-1.591 0z"/><filter id="a" width="225%" height="225%" x="-62.5%" y="-50%" filterUnits="objectBoundingBox"><feOffset dy="3" in="SourceAlpha" result="shadowOffsetOuter1"/><feGaussianBlur in="shadowOffsetOuter1" result="shadowBlurOuter1" stdDeviation="4.5"/><feColorMatrix in="shadowBlurOuter1" values="0 0 0 0 0 0 0 0 0 0 0 0 0 0 0 0 0 0 0.12 0"/></filter></defs><g fill="none" fill-rule="nonzero" transform="translate(-908 -155)"><use fill="#000" filter="url(#a)" xlink:href="#b"/><use fill="#FFF" xlink:href="#b"/></g></svg>
