<?xml version="1.0" encoding="UTF-8"?>
<svg width="42px" height="42px" viewBox="0 0 42 42" version="1.1" xmlns="http://www.w3.org/2000/svg" xmlns:xlink="http://www.w3.org/1999/xlink">
    <!-- Generator: Sketch 51.1 (57501) - http://www.bohemiancoding.com/sketch -->
    <title>Passed</title>
    <desc>Created with Sketch.</desc>
    <defs>
        <path d="M929,185 C922.372583,185 917,179.627417 917,173 C917,166.372583 922.372583,161 929,161 C935.627417,161 941,166.372583 941,173 C941,179.627417 935.627417,185 929,185 Z M932.749605,169.978067 L927.696549,175.030799 L925.574894,172.909416 C925.135526,172.470105 924.423215,172.47015 923.983904,172.909519 C923.544592,173.348887 923.544638,174.061197 923.984006,174.500509 L926.901131,177.417259 C927.340469,177.85654 928.052721,177.856529 928.492045,177.417233 L934.340545,171.569108 C934.779899,171.129782 934.779921,170.417472 934.340596,169.978118 C933.90127,169.538764 933.188959,169.538741 932.749605,169.978067 Z" id="path-1"></path>
        <filter x="-62.5%" y="-50.0%" width="225.0%" height="225.0%" filterUnits="objectBoundingBox" id="filter-2">
            <feOffset dx="0" dy="3" in="SourceAlpha" result="shadowOffsetOuter1"></feOffset>
            <feGaussianBlur stdDeviation="4.5" in="shadowOffsetOuter1" result="shadowBlurOuter1"></feGaussianBlur>
            <feColorMatrix values="0 0 0 0 0   0 0 0 0 0   0 0 0 0 0  0 0 0 0.12 0" type="matrix" in="shadowBlurOuter1"></feColorMatrix>
        </filter>
    </defs>
    <g id="Game" stroke="none" stroke-width="1" fill="none" fill-rule="evenodd">
        <g id="Main" transform="translate(-1124.000000, -263.000000)" fill-rule="nonzero">
            <g id="Blocks" transform="translate(216.000000, 108.000000)">
                <g id="Passed">
                    <use fill="black" fill-opacity="1" filter="url(#filter-2)" xlink:href="#path-1"></use>
                    <use fill="#FFFFFF" xlink:href="#path-1"></use>
                </g>
            </g>
        </g>
    </g>
</svg>